# xmcd
#
# Track frame offsets:
#	150
#	11255
#	20875
#	34390
#	44100
#	53830
#	66435
#	77260
#	87015
#	99137
#	111582
#	123385
#	135025
#	144077
#	153302
#	164882
#	176132
#	186832
#	200337
#	209117
#
# Disc length: 3103 seconds
#
# Revision: 1
# Processed by: cddbd v1.5.2PL0 Copyright (c) Steve Scherf et al.
# Submitted via: audiograbber 1.83.01
#
DISCID=190c1d14
DTITLE=Earl Gaines - 24 Hours a Day
DYEAR=1998
DGENRE=Blues
TTITLE0=Best of Luck Baby
TTITLE1=How Do You Hear
TTITLE2=Sittin' Here Drinkin'
TTITLE3=Love You So
TTITLE4=If I Could Only Hold Back the Tears
TTITLE5=Three Times Seven
TTITLE6=Let Me Down Easy
TTITLE7=Show Me Something
TTITLE8=You Are My Sunshine
TTITLE9=Best of Luck to You, The
TTITLE10=It's Worth Anything
TTITLE11=Trust in Me
TTITLE12=Too Many Times
TTITLE13=Door is Still Open, The
TTITLE14=Poor Man Gotta Make It
TTITLE15=Don't Take My Kindness for Weakness
TTITLE16=You Belong to Me
TTITLE17=I Have Loved and I Have Lived
TTITLE18=24 Hours a Day
TTITLE19=Mercy on My Soul
EXTD=
EXTT0=
EXTT1=
EXTT2=
EXTT3=
EXTT4=
EXTT5=
EXTT6=
EXTT7=
EXTT8=
EXTT9=
EXTT10=
EXTT11=
EXTT12=
EXTT13=
EXTT14=
EXTT15=
EXTT16=
EXTT17=
EXTT18=
EXTT19=
PLAYORDER=
